<?xml version="1.0" standalone="no"?>
<!DOCTYPE svg PUBLIC "-//W3C//DTD SVG 20010904//EN"
 "http://www.w3.org/TR/2001/REC-SVG-20010904/DTD/svg10.dtd">
<svg version="1.0" xmlns="http://www.w3.org/2000/svg"
 width="251.000000pt" height="184.000000pt" viewBox="0 0 251.000000 184.000000"
 preserveAspectRatio="xMidYMid meet">

<g transform="translate(0.000000,184.000000) scale(0.100000,-0.100000)"
fill="#000000" stroke="none">
<path d="M1907 1830 c-75 -19 -134 -59 -202 -134 l-68 -75 -108 6 c-165 9
-277 -19 -409 -106 -35 -22 -75 -41 -89 -41 -15 0 -57 20 -95 45 -126 82 -231
110 -380 102 -110 -5 -213 -36 -330 -100 -82 -44 -100 -71 -104 -160 -5 -114
-5 -113 -62 -121 -40 -5 -51 -11 -55 -29 -3 -12 -4 -254 -3 -537 l3 -515 176
4 c97 2 186 0 197 -4 19 -6 22 -14 22 -69 0 -36 6 -70 13 -80 13 -17 16 -17
64 8 l51 26 44 -25 c60 -34 72 -24 78 67 l5 73 690 2 c380 1 696 2 703 3 9 0
12 88 12 404 0 438 -3 414 58 434 42 14 65 4 82 -38 11 -25 10 -40 -3 -86
l-16 -55 69 -137 c38 -76 80 -150 94 -165 50 -54 134 -25 157 54 12 38 10 43
-54 175 -69 140 -110 194 -147 194 -32 0 -58 17 -75 50 -22 43 -19 55 29 103
55 56 102 153 117 242 15 85 -3 190 -47 279 -34 70 -116 149 -189 182 -61 28
-167 39 -228 24z m218 -61 c115 -54 202 -185 212 -321 13 -171 -71 -325 -217
-396 -103 -50 -237 -32 -338 45 -88 67 -149 221 -140 356 11 153 112 288 251
333 62 20 171 12 232 -17z m-1374 -203 c98 -31 222 -106 246 -149 9 -17 12
-147 13 -535 l0 -514 -32 22 c-18 12 -65 37 -105 56 -195 93 -413 86 -625 -20
l-87 -43 -6 41 c-4 23 -5 256 -3 518 l3 476 24 26 c34 36 195 114 271 131 77
18 233 13 301 -9z m856 -2 c8 -10 11 -28 8 -39 -17 -55 -16 -162 3 -230 10
-38 22 -78 27 -87 7 -17 -7 -18 -204 -18 -182 0 -212 -2 -218 -15 -3 -9 -2
-19 2 -23 3 -4 95 -10 203 -13 232 -7 285 -21 390 -106 80 -65 82 -76 82 -378
0 -146 -2 -265 -4 -265 -2 0 -42 18 -89 40 -218 102 -428 108 -620 16 -40 -19
-87 -44 -104 -56 l-33 -22 0 507 c0 355 3 513 11 528 31 59 122 118 239 155
90 29 103 31 204 28 74 -2 91 -5 103 -22z m-1507 -374 c13 -8 15 -68 15 -439
0 -339 3 -433 13 -443 9 -9 51 -14 130 -16 120 -4 142 -11 142 -43 0 -32 -34
-39 -184 -39 -138 0 -146 1 -160 22 -14 20 -16 82 -16 483 0 464 2 485 35 485
5 0 17 -5 25 -10z m1914 -236 c3 -9 6 -170 6 -358 0 -280 -3 -346 -14 -362
-14 -18 -34 -19 -623 -22 -644 -2 -725 1 -731 31 -9 48 -21 47 644 47 553 0
624 2 638 16 14 13 16 58 16 333 0 175 3 321 7 324 12 13 51 7 57 -9z m330
-92 c44 -70 77 -144 74 -165 -2 -12 -18 -32 -37 -44 l-34 -23 -23 21 c-26 24
-94 159 -94 186 0 33 29 63 60 63 23 0 35 -8 54 -38z m-1578 -437 c44 -14 107
-42 140 -60 l59 -34 -400 -1 c-442 0 -430 -2 -285 59 180 77 330 88 486 36z
m849 16 c82 -20 251 -86 261 -102 3 -5 -160 -9 -393 -9 l-398 0 35 22 c101 61
247 107 350 107 36 1 101 -8 145 -18z"/>
<path d="M1907 1726 c-100 -36 -172 -119 -203 -234 -22 -77 -10 -155 36 -249
50 -100 131 -152 241 -153 124 -1 233 76 278 195 32 83 26 207 -12 281 -67
132 -219 203 -340 160z m112 -106 c59 -92 82 -167 88 -292 6 -123 -4 -161 -48
-183 -85 -44 -223 15 -286 122 -39 67 -45 187 -13 261 35 81 123 151 193 152
23 0 34 -10 66 -60z m101 28 c45 -27 60 -44 87 -96 28 -55 33 -74 33 -136 0
-61 -5 -83 -30 -133 -17 -34 -37 -67 -45 -73 -13 -11 -15 -3 -15 59 0 98 -24
210 -66 306 -20 44 -38 86 -41 93 -9 21 21 13 77 -20z"/>
<path d="M343 1175 c-3 -9 -1 -21 4 -26 5 -5 105 -8 244 -7 226 3 234 4 234
23 0 19 -8 20 -238 23 -209 2 -238 0 -244 -13z"/>
<path d="M345 980 c-4 -6 -1 -18 6 -26 10 -12 49 -14 243 -12 223 3 231 4 231
23 0 19 -8 20 -237 23 -159 1 -239 -1 -243 -8z"/>
<path d="M343 775 c-3 -9 -1 -21 4 -26 5 -5 105 -8 244 -7 226 3 234 4 234 23
0 19 -8 20 -238 23 -209 2 -238 0 -244 -13z"/>
<path d="M1237 976 c-13 -32 18 -36 249 -34 221 3 229 4 229 23 0 19 -8 20
-236 23 -199 2 -238 0 -242 -12z"/>
<path d="M1237 776 c-13 -32 18 -36 249 -34 221 3 229 4 229 23 0 19 -8 20
-236 23 -199 2 -238 0 -242 -12z"/>
</g>
</svg>
